<?xml version="1.0" encoding="UTF-8"?>
<svg version="1.1" xmlns="http://www.w3.org/2000/svg" width="512" height="512">
<path d="M0 0 C1.53450793 -0.00417831 3.06901277 -0.00965854 4.60351193 -0.01631981 C8.79919869 -0.03072805 12.99468824 -0.02654422 17.19038558 -0.019153 C21.72356094 -0.01441214 26.2566942 -0.02693929 30.78985596 -0.03717041 C39.66259329 -0.05434584 48.53525976 -0.05520101 57.4080094 -0.04995751 C64.62163438 -0.04591219 71.83523847 -0.04736366 79.04886246 -0.05270576 C80.59028467 -0.0538284 80.59028467 -0.0538284 82.16284672 -0.05497371 C84.25060661 -0.05650523 86.3383665 -0.05804357 88.42612638 -0.05958868 C107.99442155 -0.07330921 127.56267671 -0.06787919 147.13097097 -0.05640347 C165.02161346 -0.04647183 182.91215252 -0.05941136 200.80277906 -0.08333766 C219.18620609 -0.10773721 237.56958495 -0.1173344 255.95302784 -0.11068493 C266.26860062 -0.10719459 276.58409387 -0.10941261 286.89965439 -0.12693596 C295.68112349 -0.14166863 304.46245705 -0.14227942 313.24392353 -0.12486505 C317.72140371 -0.11636144 322.19864185 -0.11418984 326.67610931 -0.1295166 C330.78073443 -0.14339277 334.88491084 -0.13856322 338.98951019 -0.11927737 C340.46855234 -0.11552599 341.94763068 -0.11841431 343.4266405 -0.12888902 C359.32709185 -0.23342725 370.82535548 3.86332431 382.50564575 14.70018005 C392.28720158 25.03540886 395.21924417 36.71443673 395.14332581 50.59492493 C395.15140411 52.38363705 395.15140411 52.38363705 395.15964562 54.20848477 C395.17141449 57.49209223 395.16988353 60.77537079 395.1624788 64.0589807 C395.15772736 67.61055674 395.17027439 71.1620796 395.18049622 74.71363831 C395.19765117 81.66130365 395.19853109 88.60887841 395.19328331 95.55655943 C395.1892341 101.20649433 395.19069407 106.85640257 395.19603157 112.50633621 C395.19677999 113.31192212 395.19752841 114.11750803 395.19829952 114.94750563 C395.19983107 116.58430552 395.20136942 118.22110541 395.20291448 119.85790528 C395.21662765 135.19139436 395.21121024 150.52483235 395.19972927 165.85832025 C395.18979878 179.8690579 395.20273647 193.87966345 395.22666346 207.89038073 C395.25107872 222.29616707 395.26065634 236.70189195 395.25401074 251.10769856 C395.25052382 259.18762563 395.25271561 267.26745115 395.27026176 275.34736252 C395.28501416 282.22575864 395.2855797 289.1039817 395.26819085 295.98237453 C395.25970321 299.48775028 395.25747588 302.99281728 395.27284241 306.49817657 C395.28607129 310.30789607 395.27448619 314.11678367 395.2568512 317.9264679 C395.2664562 319.0208495 395.27606121 320.11523111 395.28595728 321.2427758 C395.15313539 335.24830513 389.86446352 345.98309935 380.44314575 356.13768005 C370.63296065 365.42231952 359.94511575 368.64698759 346.75564575 368.38768005 C346.77659302 369.06234314 346.79754028 369.73700623 346.81912231 370.43211365 C346.90319162 373.54214572 346.95459019 376.65193765 347.00564575 379.76268005 C347.03916138 380.82357849 347.072677 381.88447693 347.10720825 382.9775238 C347.22525339 392.5982022 345.14691127 400.69539071 338.45877075 407.85643005 C331.51844075 414.09635978 324.19591927 416.69007489 314.88943481 416.6782074 C314.12433594 416.68492462 313.35923706 416.69164185 312.57095337 416.69856262 C310.05432547 416.71748037 307.53796524 416.72146392 305.02127075 416.72361755 C303.26018161 416.7300508 301.49909353 416.73677955 299.73800659 416.74378967 C296.0495252 416.75574761 292.36113734 416.75947213 288.67263794 416.75828552 C283.96757574 416.75808265 279.26311967 416.78535868 274.55820084 416.81982994 C270.92055559 416.84217173 267.2830544 416.84612081 263.6453476 416.84506607 C261.91195339 416.84741208 260.1785546 416.85617873 258.44522858 416.8717308 C246.68642909 416.96734197 236.32056217 416.52790859 227.28689575 408.09080505 C216.59558779 396.19945232 218.75564575 385.19640029 218.75564575 368.38768005 C187.07564575 368.38768005 155.39564575 368.38768005 122.75564575 368.38768005 C122.75564575 376.30768005 122.75564575 384.22768005 122.75564575 392.38768005 C118.48219018 403.07131898 114.93068328 409.39368185 104.75564575 414.38768005 C100.07924644 416.24152176 95.86542249 416.6845527 90.88943481 416.6782074 C90.12433594 416.68492462 89.35923706 416.69164185 88.57095337 416.69856262 C86.05432547 416.71748037 83.53796524 416.72146392 81.02127075 416.72361755 C79.26018161 416.7300508 77.49909353 416.73677955 75.73800659 416.74378967 C72.0495252 416.75574761 68.36113734 416.75947213 64.67263794 416.75828552 C59.96757574 416.75808265 55.26311967 416.78535868 50.55820084 416.81982994 C46.92055559 416.84217173 43.2830544 416.84612081 39.6453476 416.84506607 C37.91195339 416.84741208 36.1785546 416.85617873 34.44522858 416.8717308 C22.68642909 416.96734197 12.32056217 416.52790859 3.28689575 408.09080505 C-4.39801571 399.54330149 -5.54035507 391.18034929 -5.36935425 380.01268005 C-5.36033081 378.89506287 -5.35130737 377.77744568 -5.3420105 376.6259613 C-5.31853771 373.87964543 -5.28570152 371.13377533 -5.24435425 368.38768005 C-5.89661987 368.4058075 -6.5488855 368.42393494 -7.22091675 368.44261169 C-20.92764664 368.66372874 -31.06081292 363.29141971 -40.99435425 354.07518005 C-50.77591008 343.73995125 -53.70795266 332.06092338 -53.6320343 318.18043518 C-53.63741984 316.98796043 -53.64280538 315.79548568 -53.64835411 314.56687534 C-53.66012298 311.28326787 -53.65859202 307.99998932 -53.6511873 304.7163794 C-53.64643585 301.16480337 -53.65898288 297.61328051 -53.66920471 294.0617218 C-53.68635967 287.11405646 -53.68723959 280.16648169 -53.68199181 273.21880068 C-53.6779426 267.56886577 -53.67940257 261.91895754 -53.68474007 256.2690239 C-53.68548849 255.46343799 -53.68623691 254.65785208 -53.68700801 253.82785448 C-53.68853957 252.19105459 -53.69007791 250.5542547 -53.69162298 248.91745482 C-53.70533614 233.58396575 -53.69991873 218.25052776 -53.68843777 202.91703986 C-53.67850727 188.90630221 -53.69144497 174.89569666 -53.71537196 160.88497938 C-53.73978721 146.47919304 -53.74936483 132.07346816 -53.74271923 117.66766155 C-53.73923232 109.58773448 -53.74142411 101.50790896 -53.75897026 93.42799759 C-53.77372266 86.54960147 -53.7742882 79.67137841 -53.75689935 72.79298557 C-53.74841171 69.28760983 -53.74618438 65.78254283 -53.7615509 62.27718353 C-53.77477978 58.46746403 -53.76319468 54.65857643 -53.74555969 50.84889221 C-53.7551647 49.7545106 -53.76476971 48.660129 -53.77466577 47.53258431 C-53.64184388 33.52705498 -48.35317201 22.79226076 -38.93185425 12.63768005 C-27.56572286 1.88044856 -15.12207287 -0.06728843 0 0 Z " fill="#C2D2FB" transform="translate(85.24435424804688,47.61231994628906)"/>
<path d="M0 0 C1.53450793 -0.00417831 3.06901277 -0.00965854 4.60351193 -0.01631981 C8.79919869 -0.03072805 12.99468824 -0.02654422 17.19038558 -0.019153 C21.72356094 -0.01441214 26.2566942 -0.02693929 30.78985596 -0.03717041 C39.66259329 -0.05434584 48.53525976 -0.05520101 57.4080094 -0.04995751 C64.62163438 -0.04591219 71.83523847 -0.04736366 79.04886246 -0.05270576 C80.59028467 -0.0538284 80.59028467 -0.0538284 82.16284672 -0.05497371 C84.25060661 -0.05650523 86.3383665 -0.05804357 88.42612638 -0.05958868 C107.99442155 -0.07330921 127.56267671 -0.06787919 147.13097097 -0.05640347 C165.02161346 -0.04647183 182.91215252 -0.05941136 200.80277906 -0.08333766 C219.18620609 -0.10773721 237.56958495 -0.1173344 255.95302784 -0.11068493 C266.26860062 -0.10719459 276.58409387 -0.10941261 286.89965439 -0.12693596 C295.68112349 -0.14166863 304.46245705 -0.14227942 313.24392353 -0.12486505 C317.72140371 -0.11636144 322.19864185 -0.11418984 326.67610931 -0.1295166 C330.78073443 -0.14339277 334.88491084 -0.13856322 338.98951019 -0.11927737 C340.46855234 -0.11552599 341.94763068 -0.11841431 343.4266405 -0.12888902 C359.32709185 -0.23342725 370.82535548 3.86332431 382.50564575 14.70018005 C392.28720158 25.03540886 395.21924417 36.71443673 395.14332581 50.59492493 C395.15140411 52.38363705 395.15140411 52.38363705 395.15964562 54.20848477 C395.17141449 57.49209223 395.16988353 60.77537079 395.1624788 64.0589807 C395.15772736 67.61055674 395.17027439 71.1620796 395.18049622 74.71363831 C395.19765117 81.66130365 395.19853109 88.60887841 395.19328331 95.55655943 C395.1892341 101.20649433 395.19069407 106.85640257 395.19603157 112.50633621 C395.19677999 113.31192212 395.19752841 114.11750803 395.19829952 114.94750563 C395.19983107 116.58430552 395.20136942 118.22110541 395.20291448 119.85790528 C395.21662765 135.19139436 395.21121024 150.52483235 395.19972927 165.85832025 C395.18979878 179.8690579 395.20273647 193.87966345 395.22666346 207.89038073 C395.25107872 222.29616707 395.26065634 236.70189195 395.25401074 251.10769856 C395.25052382 259.18762563 395.25271561 267.26745115 395.27026176 275.34736252 C395.28501416 282.22575864 395.2855797 289.1039817 395.26819085 295.98237453 C395.25970321 299.48775028 395.25747588 302.99281728 395.27284241 306.49817657 C395.28607129 310.30789607 395.27448619 314.11678367 395.2568512 317.9264679 C395.2664562 319.0208495 395.27606121 320.11523111 395.28595728 321.2427758 C395.15313539 335.24830513 389.86446352 345.98309935 380.44314575 356.13768005 C370.63296065 365.42231952 359.94511575 368.64698759 346.75564575 368.38768005 C346.77659302 369.06234314 346.79754028 369.73700623 346.81912231 370.43211365 C346.90319162 373.54214572 346.95459019 376.65193765 347.00564575 379.76268005 C347.03916138 380.82357849 347.072677 381.88447693 347.10720825 382.9775238 C347.22525339 392.5982022 345.14691127 400.69539071 338.45877075 407.85643005 C331.51844075 414.09635978 324.19591927 416.69007489 314.88943481 416.6782074 C314.12433594 416.68492462 313.35923706 416.69164185 312.57095337 416.69856262 C310.05432547 416.71748037 307.53796524 416.72146392 305.02127075 416.72361755 C303.26018161 416.7300508 301.49909353 416.73677955 299.73800659 416.74378967 C296.0495252 416.75574761 292.36113734 416.75947213 288.67263794 416.75828552 C283.96757574 416.75808265 279.26311967 416.78535868 274.55820084 416.81982994 C270.92055559 416.84217173 267.2830544 416.84612081 263.6453476 416.84506607 C261.91195339 416.84741208 260.1785546 416.85617873 258.44522858 416.8717308 C246.68642909 416.96734197 236.32056217 416.52790859 227.28689575 408.09080505 C216.59558779 396.19945232 218.75564575 385.19640029 218.75564575 368.38768005 C187.07564575 368.38768005 155.39564575 368.38768005 122.75564575 368.38768005 C122.75564575 376.30768005 122.75564575 384.22768005 122.75564575 392.38768005 C118.48219018 403.07131898 114.93068328 409.39368185 104.75564575 414.38768005 C100.07924644 416.24152176 95.86542249 416.6845527 90.88943481 416.6782074 C90.12433594 416.68492462 89.35923706 416.69164185 88.57095337 416.69856262 C86.05432547 416.71748037 83.53796524 416.72146392 81.02127075 416.72361755 C79.26018161 416.7300508 77.49909353 416.73677955 75.73800659 416.74378967 C72.0495252 416.75574761 68.36113734 416.75947213 64.67263794 416.75828552 C59.96757574 416.75808265 55.26311967 416.78535868 50.55820084 416.81982994 C46.92055559 416.84217173 43.2830544 416.84612081 39.6453476 416.84506607 C37.91195339 416.84741208 36.1785546 416.85617873 34.44522858 416.8717308 C22.68642909 416.96734197 12.32056217 416.52790859 3.28689575 408.09080505 C-4.39801571 399.54330149 -5.54035507 391.18034929 -5.36935425 380.01268005 C-5.36033081 378.89506287 -5.35130737 377.77744568 -5.3420105 376.6259613 C-5.31853771 373.87964543 -5.28570152 371.13377533 -5.24435425 368.38768005 C-5.89661987 368.4058075 -6.5488855 368.42393494 -7.22091675 368.44261169 C-20.92764664 368.66372874 -31.06081292 363.29141971 -40.99435425 354.07518005 C-50.77591008 343.73995125 -53.70795266 332.06092338 -53.6320343 318.18043518 C-53.63741984 316.98796043 -53.64280538 315.79548568 -53.64835411 314.56687534 C-53.66012298 311.28326787 -53.65859202 307.99998932 -53.6511873 304.7163794 C-53.64643585 301.16480337 -53.65898288 297.61328051 -53.66920471 294.0617218 C-53.68635967 287.11405646 -53.68723959 280.16648169 -53.68199181 273.21880068 C-53.6779426 267.56886577 -53.67940257 261.91895754 -53.68474007 256.2690239 C-53.68548849 255.46343799 -53.68623691 254.65785208 -53.68700801 253.82785448 C-53.68853957 252.19105459 -53.69007791 250.5542547 -53.69162298 248.91745482 C-53.70533614 233.58396575 -53.69991873 218.25052776 -53.68843777 202.91703986 C-53.67850727 188.90630221 -53.69144497 174.89569666 -53.71537196 160.88497938 C-53.73978721 146.47919304 -53.74936483 132.07346816 -53.74271923 117.66766155 C-53.73923232 109.58773448 -53.74142411 101.50790896 -53.75897026 93.42799759 C-53.77372266 86.54960147 -53.7742882 79.67137841 -53.75689935 72.79298557 C-53.74841171 69.28760983 -53.74618438 65.78254283 -53.7615509 62.27718353 C-53.77477978 58.46746403 -53.76319468 54.65857643 -53.74555969 50.84889221 C-53.7551647 49.7545106 -53.76476971 48.660129 -53.77466577 47.53258431 C-53.64184388 33.52705498 -48.35317201 22.79226076 -38.93185425 12.63768005 C-27.56572286 1.88044856 -15.12207287 -0.06728843 0 0 Z M-18.55685425 39.01268005 C-20.91233899 42.32780673 -21.36989459 43.99269089 -21.37578201 48.00549698 C-21.37962316 48.98461304 -21.3834643 49.9637291 -21.38742185 50.97251534 C-21.38655536 52.05595341 -21.38568888 53.13939148 -21.38479614 54.25566101 C-21.38776726 55.40061468 -21.39073839 56.54556835 -21.39379954 57.72521758 C-21.40099468 60.91296605 -21.40366001 64.10068176 -21.40439701 67.28843713 C-21.40624479 70.72277448 -21.41379078 74.15710008 -21.42053223 77.59143066 C-21.43412812 85.10593663 -21.44014237 92.62043728 -21.44454288 100.1349535 C-21.4473035 104.82561926 -21.45154055 109.51628296 -21.45604706 114.20694733 C-21.46824195 127.18950394 -21.47854045 140.1720589 -21.48192215 153.15462112 C-21.48214172 153.98594027 -21.48236128 154.81725942 -21.4825875 155.67377006 C-21.48280578 156.50710148 -21.48302406 157.34043291 -21.48324895 158.19901681 C-21.48369242 159.88771836 -21.48413898 161.57641991 -21.48458862 163.26512146 C-21.48481005 164.10277935 -21.48503148 164.94043723 -21.48525962 165.80347869 C-21.48920741 179.37579525 -21.50665984 192.94805812 -21.52994815 206.52035394 C-21.55365525 220.44898123 -21.56612373 234.37758156 -21.56729007 248.30622935 C-21.56820725 256.1289746 -21.57397036 263.95164991 -21.59210968 271.77437592 C-21.60750212 278.4360795 -21.61263627 285.09769154 -21.60437158 291.75940952 C-21.60046184 295.158633 -21.60141018 298.55767209 -21.61542892 301.95687294 C-21.62807539 305.64199674 -21.62231091 309.3266445 -21.61184692 313.01176453 C-21.61990333 314.08627971 -21.62795973 315.16079489 -21.63626027 316.26787114 C-21.59480055 322.49356346 -21.15905469 327.26531648 -16.709198 332.0322113 C-12.13185391 335.53253325 -10.10549596 336.51257273 -4.37714767 336.51910782 C-3.11935997 336.52294896 -1.86157226 336.52679011 -0.56566978 336.53074765 C0.84313223 336.52996731 2.25193419 336.52908851 3.66073608 336.52812195 C5.14723976 336.53070408 6.63374273 336.53371682 8.12024474 336.53712535 C12.22011398 336.54521654 16.31996573 336.5469861 20.419842 336.54772282 C24.83578225 336.54956972 29.25171334 336.55711523 33.66764832 336.56385803 C43.33084646 336.57745722 52.99404047 336.58346862 62.65724659 336.58786869 C68.68798982 336.59062861 74.71873143 336.59486551 80.74947357 336.59937286 C97.43788172 336.61156793 114.12628857 336.62186656 130.81470108 336.62524796 C131.88342913 336.62546752 132.95215718 336.62568709 134.05327092 336.62591331 C135.66026182 336.62624072 135.66026182 336.62624072 137.29971719 336.62657475 C139.47073635 336.62701823 141.6417555 336.62746479 143.81277466 336.62791443 C144.88968173 336.62813586 145.96658879 336.62835729 147.07612941 336.62858543 C164.52835632 336.63253396 181.98054149 336.64998859 199.43275228 336.67327395 C217.33902274 336.6969728 235.24527224 336.70944915 253.15155864 336.71061587 C263.20995146 336.7115335 273.26828991 336.71730763 283.32666779 336.73543549 C291.89145136 336.75081674 300.45616376 336.75596866 309.02095851 336.74769738 C313.39229455 336.74378377 317.76348718 336.74475501 322.13480568 336.75875473 C326.13573827 336.77145123 330.13641909 336.77033375 334.13735113 336.75816402 C335.58557394 336.75619961 337.03381434 336.75931966 338.48201242 336.76800838 C340.44967073 336.77906723 342.41741179 336.76984111 344.38507462 336.75961685 C346.02497939 336.76051248 346.02497939 336.76051248 347.69801354 336.76142621 C351.90004665 336.24779553 355.26242703 334.74966578 358.400177 331.88768005 C361.66687669 327.69231992 362.8787892 324.90651317 362.88986683 319.6468153 C362.89655359 318.17515464 362.89655359 318.17515464 362.90337545 316.67376345 C362.90319108 315.59323823 362.90300672 314.512713 362.90281677 313.39944458 C362.9083318 311.68073244 362.9083318 311.68073244 362.91395825 309.92729884 C362.92308583 306.74181187 362.92769494 303.55635517 362.93034756 300.37085736 C362.93425071 296.93721727 362.94382895 293.50359211 362.95256042 290.06996155 C362.9723231 281.77597356 362.98239016 273.48198436 362.99128821 265.18797871 C362.99567087 261.28316351 363.00103769 257.37834967 363.00627708 253.47353554 C363.0232881 240.49522909 363.03778312 227.51692348 363.04502583 214.5386076 C363.04693574 211.17067145 363.04885608 207.80273531 363.05081177 204.43479919 C363.05129551 203.59770681 363.05177925 202.76061443 363.05227765 201.89815561 C363.06058117 188.33235177 363.08592406 174.76663601 363.11839245 161.20087066 C363.15144724 147.27673213 363.1694731 133.3526384 363.17267007 119.42846042 C363.17483648 111.60905769 363.18360441 103.78978346 363.20913124 95.97041893 C363.23081658 89.31238228 363.23889935 82.65450535 363.22916446 75.99643739 C363.22461357 72.59917632 363.22655115 69.20224496 363.2459259 65.80502892 C363.26353352 62.12202745 363.25659255 58.43986746 363.24339294 54.75686646 C363.25436219 53.68303339 363.26533144 52.60920033 363.27663308 51.50282687 C363.22423644 45.46422064 362.77945043 41.98640124 358.75564575 37.38768005 C354.10380237 33.18967505 350.94833585 32.2635837 344.76539135 32.25345898 C343.50561259 32.24900113 342.24583384 32.24454329 340.94787997 32.23995036 C339.54202027 32.24003966 338.13616058 32.24022952 336.7303009 32.24050903 C335.24293398 32.23721047 333.75556796 32.23348492 332.26820308 32.22936755 C328.17059531 32.21933878 324.07300219 32.21562936 319.97538388 32.21297824 C315.56014133 32.20907787 311.14491042 32.19949944 306.72967529 32.19076538 C296.06265811 32.17099484 285.39563998 32.16093463 274.72860906 32.15203759 C269.7080523 32.14765621 264.68749661 32.14228906 259.66694069 32.13704872 C242.98278237 32.12003689 226.2986247 32.10554154 209.61445904 32.09829998 C205.28399848 32.09639002 200.95353793 32.0944697 196.62307739 32.09251404 C195.54673583 32.0920303 194.47039426 32.09154656 193.36143629 32.09104816 C175.91572597 32.08274343 158.47008412 32.05739885 141.02440371 32.02493336 C123.12262193 31.99189001 105.22087498 31.97385374 87.31906253 31.97065574 C77.26401799 31.96848826 67.20907333 31.95970477 57.15405846 31.93419456 C48.59294562 31.91252486 40.03195694 31.90441877 31.47081979 31.91416135 C27.10145864 31.91871672 22.73235383 31.91674823 18.36302757 31.8973999 C14.36392256 31.87984359 10.36526234 31.88070417 6.3661531 31.89629719 C4.91863013 31.89868477 3.47107697 31.89429041 2.0236003 31.88246854 C-7.27791309 31.81119998 -12.2716376 31.87810981 -18.55685425 39.01268005 Z " fill="#232323" transform="translate(85.24435424804688,47.61231994628906)"/>
<path d="M0 0 C1.88668156 -0.00576172 1.88668156 -0.00576172 3.8114779 -0.01163983 C5.22027991 -0.01085949 6.62908187 -0.00998069 8.03788376 -0.00901413 C9.52438743 -0.01159626 11.01089041 -0.014609 12.49739242 -0.01801753 C16.59726165 -0.02610872 20.6971134 -0.02787828 24.79698968 -0.028615 C29.21292992 -0.0304619 33.62886101 -0.03800741 38.04479599 -0.04475021 C47.70799414 -0.0583494 57.37118814 -0.06436081 67.03439426 -0.06876087 C73.06513749 -0.07152079 79.09587911 -0.0757577 85.12662125 -0.08026505 C101.81502939 -0.09246011 118.50343625 -0.10275874 135.19184875 -0.10614014 C136.2605768 -0.1063597 137.32930485 -0.10657927 138.4304186 -0.10680549 C139.50174586 -0.10702377 140.57307313 -0.10724204 141.67686486 -0.10746694 C143.84788402 -0.10791041 146.01890318 -0.10835697 148.18992233 -0.10880661 C149.80528293 -0.10913875 149.80528293 -0.10913875 151.45327708 -0.10947761 C168.905504 -0.11342614 186.35768917 -0.13088077 203.80989996 -0.15416613 C221.71617041 -0.17786498 239.62241991 -0.19034133 257.52870631 -0.19150805 C267.58709914 -0.19242568 277.64543759 -0.19819982 287.70381546 -0.21632767 C296.26859903 -0.23170892 304.83331144 -0.23686084 313.39810619 -0.22858956 C317.76944222 -0.22467595 322.14063486 -0.2256472 326.51195335 -0.23964691 C330.51288595 -0.25234342 334.51356677 -0.25122593 338.5144988 -0.2390562 C339.96272162 -0.23709179 341.41096201 -0.24021185 342.8591601 -0.24890056 C344.82681841 -0.25995941 346.79455947 -0.25073329 348.76222229 -0.24050903 C349.85549214 -0.24110612 350.94876198 -0.24170321 352.07516122 -0.24231839 C356.28591864 0.2723787 359.66391965 1.76024631 362.77732468 4.66658401 C365.85812677 8.69532522 367.25684328 10.72053734 367.26422119 15.74924469 C367.26806234 16.72836075 367.27190348 17.70747681 367.27586102 18.71626306 C367.27499454 19.79970113 367.27412806 20.8831392 367.27323532 21.99940872 C367.277692 23.71683922 367.277692 23.71683922 367.28223872 25.46896529 C367.28943386 28.65671376 367.29209919 31.84442947 367.29283619 35.03218484 C367.29468397 38.46652219 367.30222996 41.90084779 367.30897141 45.33517838 C367.3225673 52.84968434 367.32858155 60.36418499 367.33298206 67.87870121 C367.33574268 72.56936697 367.33997972 77.26003067 367.34448624 81.95069504 C367.35668113 94.93325166 367.36697963 107.91580661 367.37036133 120.89836884 C367.37058089 121.72968798 367.37080046 122.56100713 367.37102668 123.41751777 C367.37124496 124.2508492 367.37146324 125.08418062 367.37168813 125.94276452 C367.3721316 127.63146607 367.37257816 129.32016762 367.3730278 131.00886917 C367.37324923 131.84652706 367.37347066 132.68418494 367.3736988 133.5472264 C367.37764659 147.11954297 367.39509902 160.69180583 367.41838732 174.26410165 C367.44209443 188.19272894 367.45456291 202.12132927 367.45572925 216.04997706 C367.45664643 223.87272231 367.46240954 231.69539763 367.48054886 239.51812363 C367.4959413 246.17982721 367.50107545 252.84143925 367.49281076 259.50315723 C367.48890102 262.90238071 367.48984936 266.3014198 367.5038681 269.70062065 C367.51651457 273.38574446 367.51075008 277.07039221 367.5002861 280.75551224 C367.51237071 282.36728501 367.51237071 282.36728501 367.52469945 284.01161885 C367.48319941 290.24336508 367.02207108 294.96375617 362.63279343 299.77595901 C357.94445841 303.42651154 354.9984488 304.25605965 349.14253902 304.26564884 C347.25287089 304.27233561 347.25287089 304.27233561 345.32502764 304.27915746 C343.91916795 304.27906816 342.51330825 304.2788783 341.10744858 304.27859879 C339.62008166 304.28189735 338.13271563 304.2856229 336.64535075 304.28974026 C332.54774298 304.29976904 328.45014986 304.30347846 324.35253155 304.30612957 C319.93728901 304.31002995 315.5220581 304.31960838 311.10682297 304.32834244 C300.43980579 304.34811298 289.77278765 304.35817319 279.10575673 304.36707023 C274.08519998 304.37145161 269.06464428 304.37681876 264.04408836 304.3820591 C247.35993004 304.39907093 230.67577238 304.41356628 213.99160671 304.42080784 C209.66114616 304.4227178 205.3306856 304.42463812 201.00022507 304.42659378 C199.38571272 304.42731939 199.38571272 304.42731939 197.73858396 304.42805966 C180.29287364 304.43636439 162.84723179 304.46170897 145.40155139 304.49417446 C127.4997696 304.52721781 109.59802265 304.54525408 91.69621021 304.54845208 C81.64116566 304.55061956 71.586221 304.55940305 61.53120613 304.58491325 C52.9700933 304.60658295 44.40910461 304.61468905 35.84796747 304.60494647 C31.47860631 304.6003911 27.10950151 304.60235959 22.74017525 304.62170792 C18.74107024 304.63926423 14.74241001 304.63840365 10.74330077 304.62281062 C9.2957778 304.62042305 7.84822464 304.6248174 6.40074798 304.63663927 C-7.01155966 304.73940491 -7.01155966 304.73940491 -11.86720657 300.13142776 C-15.64152794 295.94907166 -16.9896466 292.9842466 -17.00142765 287.39056301 C-17.00811442 285.91890235 -17.00811442 285.91890235 -17.01493627 284.41751117 C-17.01475191 283.33698594 -17.01456754 282.25646071 -17.01437759 281.14319229 C-17.01805428 279.9973842 -17.02173097 278.85157611 -17.02551907 277.67104656 C-17.03464665 274.48555958 -17.03925576 271.30010288 -17.04190838 268.11460507 C-17.04581153 264.68096498 -17.05538977 261.24733982 -17.06412125 257.81370926 C-17.08388392 249.51972127 -17.09395098 241.22573207 -17.10284904 232.93172643 C-17.10723169 229.02691122 -17.11259851 225.12209738 -17.11783791 221.21728325 C-17.13484892 208.2389768 -17.14934394 195.2606712 -17.15658665 182.28235531 C-17.15849657 178.91441916 -17.1604169 175.54648302 -17.16237259 172.17854691 C-17.16285633 171.34145452 -17.16334007 170.50436214 -17.16383847 169.64190332 C-17.17214199 156.07609948 -17.19748488 142.51038373 -17.22995327 128.94461837 C-17.26300806 115.02047984 -17.28103392 101.09638611 -17.28423089 87.17220813 C-17.2863973 79.3528054 -17.29516523 71.53353117 -17.32069206 63.71416664 C-17.3423774 57.05612999 -17.35046018 50.39825306 -17.34072528 43.7401851 C-17.3361744 40.34292404 -17.33811197 36.94599267 -17.35748672 33.54877663 C-17.37509434 29.86577517 -17.36815337 26.18361517 -17.35495377 22.50061417 C-17.36592301 21.4267811 -17.37689226 20.35294804 -17.38819391 19.24657458 C-17.33581129 13.20958488 -16.89492072 9.72618927 -12.86720657 5.13142776 C-8.32275611 1.12798331 -6.00896303 0.00685522 0 0 Z M10.39060593 28.59627151 C7.10054252 32.87335395 6.01091393 35.88477518 6.00136566 41.19606113 C5.99752452 42.00088942 5.99368337 42.8057177 5.98972583 43.63493472 C5.99059231 44.51342663 5.99145879 45.39191853 5.99235153 46.2970314 C5.98938041 47.23472718 5.98640929 48.17242297 5.98334813 49.13853377 C5.9746596 52.2882737 5.97315275 55.43797562 5.97166061 58.58772659 C5.96703258 60.84294084 5.96200794 63.0981543 5.95661545 65.35336685 C5.94348878 71.48563553 5.93704607 77.61789327 5.93260479 83.75017381 C5.92967475 87.58019359 5.92557009 91.41021038 5.92110062 95.24022865 C5.9089924 105.84751669 5.89860991 116.45480212 5.89522552 127.0620966 C5.89500596 127.74074577 5.89478639 128.41939493 5.89456017 129.11860923 C5.8943419 129.79886665 5.89412362 130.47912407 5.89389873 131.17999536 C5.89345526 132.55841879 5.8930087 133.93684222 5.89255905 135.31526566 C5.89233762 135.99900887 5.89211619 136.68275209 5.89188805 137.3872148 C5.88794016 148.46588829 5.87048557 159.54449599 5.84719953 170.62314407 C5.82347704 182.00140436 5.81128119 193.37962053 5.80985761 204.75790995 C5.80880874 211.14481727 5.80288334 217.53163179 5.78503799 223.91851616 C5.76857953 229.92589871 5.76639107 235.93311848 5.775177 241.94051552 C5.77594854 244.14517401 5.77158933 246.34984117 5.76171875 248.55447769 C5.7490315 251.56480402 5.75485878 254.57455098 5.76530075 257.5848732 C5.75724435 258.45667294 5.74918794 259.32847268 5.7408874 260.22669059 C5.78923546 266.18891415 6.62803952 271.15244045 10.59763718 275.87361526 C15.38583482 279.55684422 18.55976001 280.25442394 24.49366856 280.26564884 C26.13459373 280.27233561 26.13459373 280.27233561 27.80866891 280.27915746 C29.01010952 280.2789731 30.21155014 280.27878873 31.44939804 280.27859879 C33.36434398 280.28411382 33.36434398 280.28411382 35.3179757 280.28974026 C38.86411819 280.29975134 42.41024375 280.3034756 45.95639837 280.30612957 C49.77995419 280.31003516 53.60349664 280.31961318 57.42704391 280.32834244 C66.66093247 280.34809744 75.89482211 280.35817085 85.12872651 280.36707023 C89.4767187 280.37145383 93.82470966 280.37682038 98.17270088 280.3820591 C112.62480828 280.39906877 127.07691493 280.4135639 141.5290308 280.42080784 C145.27870624 280.42271773 149.02838168 280.42463807 152.7780571 280.42659378 C153.71002134 280.42707752 154.64198559 280.42756126 155.60219117 280.42805966 C170.70628487 280.43636363 185.81029946 280.46170789 200.91435859 280.49417446 C216.41942077 280.52723154 231.92444273 280.54525529 247.42954034 280.54845208 C256.13595022 280.5506182 264.84224467 280.55938193 273.54862022 280.58491325 C280.96161234 280.60660162 288.37446098 280.61467981 295.78748123 280.60494647 C299.56966108 280.60039661 303.35154478 280.60232755 307.13368416 280.62170792 C311.23441125 280.64253942 315.33447933 280.63237122 319.43523788 280.61917496 C320.62998633 280.6301442 321.82473478 280.64111345 323.05568773 280.6524151 C329.64712171 280.60107932 333.79621357 280.11244382 339.13279343 276.13142776 C344.17995359 270.68580759 344.28023712 266.20193524 344.27323532 259.04811478 C344.27620644 258.10718987 344.27917757 257.16626496 344.28223872 256.19682717 C344.29094055 253.03016169 344.29243523 249.86353395 344.29392624 246.69685745 C344.29855338 244.43193862 344.30357789 242.16702056 344.30897141 239.90210342 C344.32210777 233.73878478 344.32854282 227.57547703 344.33298206 221.41214657 C344.33591089 217.56320358 344.34001535 213.71426359 344.34448624 209.86532211 C344.35659684 199.20746194 344.36697821 188.54960541 344.37036133 177.89173889 C344.37058089 177.20958699 344.37080046 176.52743509 344.37102668 175.82461192 C344.37124496 175.14083145 344.37146324 174.45705098 344.37168813 173.75254989 C344.37213159 172.366961 344.37257816 170.98137212 344.3730278 169.59578323 C344.37324923 168.9084839 344.37347066 168.22118456 344.3736988 167.51305798 C344.37764579 156.37935558 344.3950966 145.24571867 344.41838732 134.11204156 C344.4421099 122.67957071 344.4543057 111.24714742 344.45572925 99.81464887 C344.45677821 93.3964277 344.46270549 86.97829888 344.48054886 80.56010056 C344.4970075 74.5223628 344.49919568 68.48478701 344.49040985 62.44703484 C344.48963829 60.23108932 344.49399784 58.01513517 344.5038681 55.7992115 C344.51655476 52.77350592 344.51072836 49.74837681 344.5002861 46.72267532 C344.50834251 45.84630252 344.51639891 44.96992971 344.52469945 44.06700015 C344.47655002 38.09931404 343.66896722 33.07708795 339.63279343 28.38924026 C335.22581377 25.0610525 332.34902555 24.00718741 326.89496613 24 C325.80300706 23.99615885 324.71104799 23.99231771 323.58599925 23.98836017 C322.3816458 23.98922665 321.17729234 23.99009313 319.93644333 23.99098587 C318.66066713 23.98801475 317.38489092 23.98504363 316.07045484 23.98198247 C312.52205056 23.97390419 308.97366649 23.97212244 305.42525411 23.971385 C301.60100081 23.96953587 297.77675805 23.96198923 293.95251083 23.95524979 C285.58678424 23.94165986 277.22106244 23.93564066 268.85532665 23.93123913 C263.63280447 23.92847771 258.41028414 23.92424053 253.18776321 23.91973495 C238.7314058 23.90754122 224.27504988 23.89724225 209.81868744 23.89385986 C208.89319141 23.8936403 207.96769539 23.89342073 207.01415403 23.89319451 C206.08642783 23.89297623 205.15870162 23.89275796 204.2028625 23.89253306 C202.32289807 23.8920896 200.44293364 23.89164303 198.56296921 23.89119339 C197.63043946 23.89097196 196.69790972 23.89075053 195.73712149 23.89052239 C180.6265133 23.88657431 165.51595333 23.86912047 150.40536377 23.84583387 C134.89581287 23.82212515 119.38628617 23.80965822 103.87671685 23.80849195 C95.16696183 23.80757489 86.45726962 23.801815 77.74753189 23.78367233 C70.3308711 23.76827779 62.91429255 23.76314704 55.49761882 23.77141044 C51.71347087 23.7753193 47.92948856 23.77437593 44.14536095 23.76035309 C40.04248013 23.74528809 35.93997312 23.75347367 31.83707809 23.76393509 C30.64164753 23.75587868 29.44621696 23.74782228 28.21456122 23.73952174 C21.39005783 23.78031712 15.81971078 24.0314412 10.39060593 28.59627151 Z " fill="#DAE2FC" transform="translate(80.86720657348633,79.86857223510742)"/>
<path d="M0 0 C4.35750418 3.40910621 6.70442166 6.24674524 7.38964844 11.75170898 C7.48410416 15.51190993 7.42803514 19.23683713 7.3046875 22.99609375 C7.28212891 24.29998047 7.25957031 25.60386719 7.23632812 26.94726562 C7.17762913 30.15223051 7.09555588 33.35481006 6.9921875 36.55859375 C7.55123779 36.66308838 8.11028809 36.76758301 8.6862793 36.87524414 C14.10677692 37.97099205 18.8678191 39.51244722 23.8046875 41.99609375 C24.48974365 42.34027344 25.1747998 42.68445313 25.88061523 43.0390625 C33.00012216 46.80738393 38.43606952 51.79764192 43.9921875 57.55859375 C44.65605469 58.19152344 45.31992187 58.82445312 46.00390625 59.4765625 C50.07330127 63.61911518 52.68016847 68.36834208 55.3046875 73.49609375 C55.64274414 74.15246826 55.98080078 74.80884277 56.32910156 75.48510742 C58.71663761 80.37931442 60.01526019 85.21067208 60.9921875 90.55859375 C61.76820313 90.53240967 62.54421875 90.50622559 63.34375 90.47924805 C66.8930195 90.37468648 70.44196401 90.31007821 73.9921875 90.24609375 C75.21292969 90.20419922 76.43367187 90.16230469 77.69140625 90.11914062 C85.01792162 90.02013366 90.48514372 90.38007485 95.9921875 95.55859375 C98.67997118 98.77516127 99.88398018 101.81466839 100.4921875 105.99609375 C99.76604233 111.1698781 98.30178599 115.3116908 94.49023438 119.01977539 C88.03190717 123.59855923 81.66265385 123.13433573 73.9921875 122.87109375 C72.74050781 122.84853516 71.48882812 122.82597656 70.19921875 122.80273438 C67.12895383 122.74414153 64.06120989 122.66214777 60.9921875 122.55859375 C60.83544556 123.39716919 60.83544556 123.39716919 60.67553711 124.25268555 C59.5797892 129.67318317 58.03833403 134.43422535 55.5546875 139.37109375 C55.03841797 140.39867798 55.03841797 140.39867798 54.51171875 141.44702148 C50.74339732 148.56652841 45.75313933 154.00247577 39.9921875 159.55859375 C39.35925781 160.22246094 38.72632813 160.88632812 38.07421875 161.5703125 C33.93166607 165.63970752 29.18243917 168.24657472 24.0546875 170.87109375 C23.39831299 171.20915039 22.74193848 171.54720703 22.06567383 171.89550781 C17.17146683 174.28304386 12.34010917 175.58166644 6.9921875 176.55859375 C7.01837158 177.33460938 7.04455566 178.110625 7.0715332 178.91015625 C7.17609477 182.45942575 7.24070304 186.00837026 7.3046875 189.55859375 C7.34658203 190.77933594 7.38847656 192.00007812 7.43164062 193.2578125 C7.52966822 200.51185474 7.24277326 206.16150041 1.9921875 211.55859375 C-2.75650706 214.92237455 -7.13208129 216.5029077 -13.0078125 215.55859375 C-18.00520017 213.43164532 -21.59689192 210.77113296 -24.23364258 205.88842773 C-25.96544024 200.67665068 -25.40570726 195.04484971 -25.2578125 189.62109375 C-25.23976563 188.36490234 -25.22171875 187.10871094 -25.203125 185.81445312 C-25.15618844 182.72837459 -25.09053664 179.64388594 -25.0078125 176.55859375 C-25.84638794 176.40185181 -25.84638794 176.40185181 -26.7019043 176.24194336 C-32.12240192 175.14619545 -36.8834441 173.60474028 -41.8203125 171.12109375 C-42.84789673 170.60482422 -42.84789673 170.60482422 -43.89624023 170.078125 C-51.01574716 166.30980357 -56.45169452 161.31954558 -62.0078125 155.55859375 C-62.67167969 154.92566406 -63.33554688 154.29273438 -64.01953125 153.640625 C-68.08892627 149.49807232 -70.69579347 144.74884542 -73.3203125 139.62109375 C-73.82739746 138.63653198 -73.82739746 138.63653198 -74.34472656 137.63208008 C-76.73226261 132.73787308 -78.03088519 127.90651542 -79.0078125 122.55859375 C-80.21727539 122.6057251 -80.21727539 122.6057251 -81.45117188 122.65380859 C-85.13642854 122.77922586 -88.82123524 122.85679006 -92.5078125 122.93359375 C-93.77625 122.98386719 -95.0446875 123.03414063 -96.3515625 123.0859375 C-103.4286385 123.19651681 -108.12655449 122.94667149 -113.57226562 118.19360352 C-116.82946159 114.48383457 -117.84442049 110.86572981 -118.4453125 106.05859375 C-117.70982001 100.17465382 -115.36695886 96.88878102 -111.2578125 92.8671875 C-105.7124031 89.03857608 -99.01920315 90.03449461 -92.5703125 90.24609375 C-91.26642578 90.26865234 -89.96253906 90.29121094 -88.61914062 90.31445312 C-85.41417574 90.37315212 -82.21159619 90.45522537 -79.0078125 90.55859375 C-78.90331787 89.99954346 -78.79882324 89.44049316 -78.69116211 88.86450195 C-77.5954142 83.44400433 -76.05395903 78.68296215 -73.5703125 73.74609375 C-73.22613281 73.0610376 -72.88195312 72.37598145 -72.52734375 71.67016602 C-68.75902232 64.55065909 -63.76876433 59.11471173 -58.0078125 53.55859375 C-57.37488281 52.89472656 -56.74195313 52.23085937 -56.08984375 51.546875 C-51.94729107 47.47747998 -47.19806417 44.87061278 -42.0703125 42.24609375 C-41.08575073 41.73900879 -41.08575073 41.73900879 -40.08129883 41.22167969 C-35.18709183 38.83414364 -30.35573417 37.53552106 -25.0078125 36.55859375 C-25.0392334 35.75228516 -25.0706543 34.94597656 -25.10302734 34.11523438 C-25.22844461 30.42997771 -25.30600881 26.74517101 -25.3828125 23.05859375 C-25.43308594 21.79015625 -25.48335938 20.52171875 -25.53515625 19.21484375 C-25.64609917 12.11449686 -25.39493252 7.43326795 -20.59399414 1.99414062 C-14.09228478 -3.8901215 -7.51833873 -3.50959795 0 0 Z " fill="#232323" transform="translate(225.0078125,125.44140625)"/>
<path d="M0 0 C5.67476113 1.96434039 9.31400331 5.62800662 12 11 C12.09976648 12.79823782 12.13508801 14.60018882 12.14044189 16.40118408 C12.14615204 17.54800156 12.15186218 18.69481903 12.15774536 19.87638855 C12.15886322 21.14082291 12.15998108 22.40525726 12.16113281 23.70800781 C12.16576037 25.04830563 12.17078494 26.38860213 12.17617798 27.72889709 C12.18931223 31.37575893 12.19574922 35.02260234 12.20018864 38.66948414 C12.20311842 40.94801138 12.20722311 43.22653358 12.21169281 45.50505829 C12.22537201 52.63417674 12.23503593 59.76328367 12.2388947 66.89241433 C12.24337311 75.1212804 12.26090902 83.34998017 12.2898953 91.57879567 C12.311521 97.93896552 12.3215995 104.29908862 12.32293582 110.65929484 C12.32398345 114.4578978 12.32988188 118.25634452 12.34775543 122.05490875 C12.36425101 125.63033643 12.36638456 129.20549071 12.35761642 132.78094292 C12.35648052 134.71448124 12.37018747 136.64801054 12.3843689 138.58149719 C12.35214418 145.28257748 12.26641194 150.5008666 7.46484375 155.64453125 C1.772356 159.99761012 -1.87222635 160.789538 -9 160 C-14.31565158 157.34217421 -18.10236008 153.69291975 -20 148 C-20.09902281 146.16153162 -20.13930089 144.31967779 -20.14717102 142.4785614 C-20.15432632 141.33036926 -20.16148163 140.18217712 -20.16885376 138.99919128 C-20.17154266 137.7383522 -20.17423157 136.47751312 -20.17700195 135.1784668 C-20.18326803 133.83802108 -20.18991496 132.4975771 -20.19691467 131.15713501 C-20.21793878 126.75450852 -20.22831488 122.35188175 -20.23828125 117.94921875 C-20.2423293 116.4328338 -20.24644623 114.91644904 -20.25063133 113.40006447 C-20.26967867 106.27629198 -20.28391116 99.15252983 -20.2922433 92.02873677 C-20.30201717 83.80832175 -20.32834227 75.5881759 -20.36874419 67.36785573 C-20.39890999 61.01191311 -20.41371257 54.65604764 -20.41702431 48.30003482 C-20.41937412 44.50474369 -20.4283252 40.70974026 -20.45348549 36.91452599 C-20.47677994 33.3431317 -20.4809943 29.77221429 -20.47072411 26.2007637 C-20.46999336 24.26959906 -20.4890746 22.33845856 -20.50878906 20.40739441 C-20.47027674 13.99228612 -20.43469841 9.81743559 -16 5 C-10.58420856 0.22894564 -7.09115125 -0.64682799 0 0 Z " fill="#232323" transform="translate(372,152)"/>
<path d="M0 0 C7.01534685 4.5696296 12.22558105 11.77314851 14 20 C14.92304179 30.40070304 12.91319303 39.42335652 6.7890625 47.9609375 C0.65788728 54.94887083 -7.67623775 58.27549541 -16.76171875 59.31640625 C-25.93918949 59.71320066 -33.00629638 56.44963917 -40.14453125 50.8359375 C-46.64178044 44.40708041 -50.26420313 35.76176366 -50.375 26.6875 C-50.26383248 20.57328646 -49.17488016 16.2024516 -46 11 C-45.57589844 10.30132812 -45.15179688 9.60265625 -44.71484375 8.8828125 C-34.17648681 -6.6752075 -15.80622083 -8.79670733 0 0 Z " fill="#FCDC4F" transform="translate(234,205)"/>
<path d="M0 0 C21.12 0 42.24 0 64 0 C64 5.28 64 10.56 64 16 C42.88 16 21.76 16 0 16 C0 10.72 0 5.44 0 0 Z " fill="#DBE3FD" transform="translate(336,416)"/>
<path d="M0 0 C21.12 0 42.24 0 64 0 C64 5.28 64 10.56 64 16 C42.88 16 21.76 16 0 16 C0 10.72 0 5.44 0 0 Z " fill="#DBE3FD" transform="translate(112,416)"/>
</svg>
